PathFileType	4	(X/Y/Z)	C:\Users\WrightLab\Desktop\Jo\P5V114.trc
DataRate	CameraRate	NumFrames	NumMarkers	Units	OrigDataRate	OrigDataStartFrame	OrigNumFrames
100.00	100.00	      53	19	mm	100.00	131	      1045
Frame#	Time	Headset_Front			Headset_Back			Headset_Left			Headset_Right			Left_Shoulder			Right_Shoulder			Sternum			C7			Left Elbow			Right Elbow			Left Wrist			Right Wrist			Left ASIS			Right ASIS			S2			Left Knee			Right Knee			Left Ankle			Right Ankle			
		X1	Y1	Z1	X2	Y2	Z2	X3	Y3	Z3	X4	Y4	Z4	X5	Y5	Z5	X6	Y6	Z6	X7	Y7	Z7	X8	Y8	Z8	X9	Y9	Z9	X10	Y10	Z10	X11	Y11	Z11	X12	Y12	Z12	X13	Y13	Z13	X14	Y14	Z14	X15	Y15	Z15	X16	Y16	Z16	X17	Y17	Z17	X18	Y18	Z18	X19	Y19	Z19	

131	1.300																												-83.41996	1197.70825	1410.53821				-195.38829	1088.93945	1212.78906	-519.03613	1002.38696	1748.70557										-230.40089	530.53210	1650.81262							
132	1.310																												-82.80750	1196.14880	1412.13403				-195.77985	1087.32349	1214.05994	-519.31421	1002.36627	1748.48340										-230.57413	530.44214	1650.97168							
133	1.320																												-81.57131	1196.20764	1412.44922				-195.58858	1085.94446	1216.35925	-519.52234	1002.37628	1748.32410										-230.71745	530.39563	1651.10608							
134	1.330																												-81.27042	1195.72803	1413.05945				-195.88597	1083.81934	1218.33423	-519.66412	1002.41302	1748.25012										-230.81818	530.35309	1651.19946							
135	1.340																												-80.75896	1194.54761	1413.58789				-196.48267	1081.86365	1219.66833	-519.83740	1002.48920	1748.35168										-231.03246	530.30762	1651.40259							
136	1.350																												-79.97083	1193.53296	1414.70715				-196.32292	1080.11194	1221.88062	-519.91058	1002.45844	1748.29102										-231.30846	530.83319	1650.26489							
137	1.360																												-80.11760	1192.31970	1415.03809				-196.48560	1078.38635	1223.74829	-519.93628	1002.45898	1748.23682										-231.49289	530.75073	1650.43542							
138	1.370																												-78.87326	1192.27551	1415.97229				-196.78848	1076.42627	1225.72668	-519.72961	1002.46240	1748.06726										-231.60680	530.66345	1650.53735							
139	1.380																												-78.53168	1191.64221	1416.70215				-196.18794	1074.26697	1227.13489	-519.72107	1002.31586	1747.81165										-231.55269	530.71655	1649.53650							
140	1.390																												-75.96874	1190.83154	1417.27551				-196.14890	1072.48218	1229.45825	-519.53912	1002.29883	1747.59009										-231.48859	530.35327	1649.25317							
141	1.400																												-78.01489	1190.29077	1418.25000				-195.94273	1070.76599	1231.27563	-519.34930	1002.06506	1747.06750										-231.33527	530.34076	1649.10376							
142	1.410																												-78.23675	1189.41028	1418.61865				-196.22447	1068.78479	1232.63538	-519.13409	1001.96814	1746.68860										-231.01128	530.44696	1648.80066							
143	1.420																												-78.21404	1187.94739	1419.34473				-195.28363	1066.75110	1234.78247	-518.83228	1001.82446	1746.27344										-230.63354	530.55634	1648.44580							
144	1.430																												-77.54866	1187.01868	1420.21741				-194.94206	1064.62170	1236.62561	-518.59900	1001.79553	1746.08936										-230.18118	530.67407	1648.01965							
145	1.440																												-76.85251	1185.98938	1421.47546				-194.67888	1063.05115	1238.74548	-518.16974	1001.62128	1745.71277										-229.48434	530.10101	1647.17407							
146	1.450																												-76.66149	1184.07239	1423.19165				-194.24902	1060.61047	1240.43115	-517.87866	1001.44440	1745.50122										-229.44360	529.95520	1645.76514							
147	1.460																												-75.36316	1183.54443	1424.29749				-194.45184	1058.51038	1242.74170	-517.47784	1001.30219	1745.42017										-229.00546	530.34192	1644.39453							
148	1.470																												-75.60233	1181.27649	1424.97205				-193.87778	1056.38281	1245.25854	-517.01611	1001.19397	1745.50757										-228.42929	530.08575	1643.66577							
149	1.480																												-75.07140	1180.19263	1426.58911				-193.88905	1053.60266	1247.09143	-516.43835	1000.81964	1745.46265										-227.83554	529.18073	1642.50513							
150	1.490																												-74.19939	1178.55273	1427.90356				-193.28870	1051.24255	1249.75793	-515.78564	1000.60797	1745.69934										-227.45842	529.23627	1642.14636							
151	1.500																												-74.33273	1176.50171	1429.03015				-192.82919	1048.12854	1252.04602	-515.32520	1000.56750	1746.06152										-227.15079	529.32379	1641.85767							
152	1.510																												-73.29405	1175.30249	1430.14319				-192.99402	1045.36121	1254.15222	-514.84180	1000.51404	1746.17175										-226.70413	530.14618	1640.44690							
153	1.520																												-72.86185	1174.32275	1431.50903				-192.24722	1042.45789	1255.90088	-514.41180	1000.47913	1746.10657										-226.58029	530.10779	1640.32373							
154	1.530																												-73.04042	1172.50195	1432.80322				-191.97420	1039.41223	1258.64746	-513.95819	1000.52704	1746.34216										-226.33710	530.18231	1640.09607							
155	1.540																												-73.40110	1170.63782	1433.93555				-191.52155	1036.56641	1261.14319	-513.62769	1000.47681	1746.52869										-226.01631	530.28998	1639.79675							
156	1.550																												-73.56927	1169.32190	1434.20923				-191.44748	1033.18384	1262.42993	-513.28168	1000.46539	1746.82458										-225.79362	530.33154	1639.58582							
157	1.560																												-73.80452	1167.52661	1435.52368				-191.59930	1030.44067	1264.55713	-512.94659	1000.29059	1746.91357										-225.48843	529.71332	1640.28955							
158	1.570																												-73.51467	1166.41797	1437.16467				-190.44550	1026.80713	1266.86292	-512.78119	1000.38873	1747.36536										-225.05037	529.91449	1639.88574							
159	1.580																												-73.58462	1164.91760	1437.62939				-190.16278	1024.21875	1269.15063	-512.58838	1000.36499	1747.67993										-224.55890	529.95215	1640.01135							
160	1.590																												-73.49822	1163.64624	1438.98669				-189.57434	1020.46600	1271.07764	-512.39172	1000.36432	1748.02356										-223.93025	530.00873	1640.00610							
161	1.600																												-73.29929	1162.21826	1440.00317				-189.19888	1017.81384	1272.81335	-512.22015	1000.30640	1748.11536										-223.54918	530.14886	1639.65137							
162	1.610																												-73.54709	1160.90417	1440.83325				-188.99905	1014.23846	1274.44775	-512.01660	1000.39282	1748.32214										-223.06013	529.95197	1642.16895							
163	1.620																												-73.92429	1159.38867	1441.13232				-188.75865	1011.94556	1276.53662	-511.89810	1000.44348	1748.55896										-222.48492	529.55066	1642.80969							
164	1.630																												-73.98820	1158.14404	1442.24866				-188.39558	1008.20410	1278.05139	-511.76050	1000.46100	1748.62415										-222.32843	529.34320	1643.62170							
165	1.640																												-73.90298	1156.62134	1442.72791				-188.26341	1005.68359	1279.90991	-511.56870	1000.51068	1748.66333										-222.12184	529.45990	1644.39917							
166	1.650																												-74.07096	1155.97729	1443.13062				-187.28366	1002.05499	1281.47607	-511.35388	1000.49542	1748.59912										-221.67928	529.52216	1644.57361							
167	1.660																												-74.16641	1154.61584	1443.67517				-187.13457	999.18854	1283.09167	-511.22675	1000.61835	1748.80432										-221.47801	530.35388	1644.28540							
168	1.670																												-74.23837	1152.90637	1444.83447				-186.49928	996.15094	1284.09302	-511.05118	1000.73926	1748.91052										-221.44904	529.76233	1645.26086							
169	1.680																												-74.82608	1152.09668	1444.90662				-185.56509	993.25574	1286.27454	-510.80273	1000.77832	1748.80457										-221.26013	529.72260	1647.63953							
170	1.690																												-75.10420	1151.49463	1444.78589				-185.08466	989.92358	1286.94104	-510.62662	1000.84082	1748.79834										-221.30278	529.76398	1647.68481							
171	1.700																												-75.75426	1150.03894	1445.13904				-184.42679	987.11444	1288.22974	-510.38019	1000.92206	1748.84753										-221.48712	529.65503	1649.33533							
172	1.710																												-75.97130	1149.06982	1445.32654				-183.84930	983.90308	1288.84778	-510.19946	1001.11993	1749.02466										-221.78596	529.66553	1649.62622							
173	1.720																												-76.78884	1147.72913	1444.84839				-182.92424	980.39221	1289.83081	-510.02646	1001.16583	1749.07568										-222.11096	529.53973	1649.92969							
174	1.730																												-77.14565	1147.00610	1445.05933				-182.38950	977.65515	1290.12244	-509.80533	1001.18683	1749.02026										-222.68645	529.27173	1651.38623							
175	1.740																												-77.55375	1146.18140	1444.46082				-181.39304	974.32776	1290.72644	-509.68539	1001.21619	1749.23669										-223.25024	529.41425	1652.95203							
176	1.750																												-77.96790	1145.06702	1444.34814				-180.61903	971.08667	1291.40918	-509.54590	1001.33221	1749.72559										-223.59688	529.33685	1653.28137							
177	1.760																												-78.64577	1143.37659	1443.09192				-179.86934	967.81622	1291.60815	-509.44354	1001.28479	1750.08887										-223.88786	529.30707	1653.56116							
178	1.770																												-79.19633	1142.11316	1442.41614				-179.53500	964.29041	1291.87598	-509.32098	1001.20764	1750.36963										-224.13008	529.23315	1653.78943							
179	1.780																												-80.06098	1141.00391	1441.59534				-178.75363	961.49261	1292.43506	-509.28113	1001.24652	1750.91870										-224.27690	529.42822	1654.81519							
180	1.790																												-80.14604	1140.03479	1441.19031				-178.05641	957.52795	1292.56970	-509.09534	1001.28900	1751.46350										-224.39995	529.46094	1654.93787							
181	1.800																												-80.20713	1139.14136	1439.70959				-177.69739	954.14600	1292.36426	-508.92728	1001.30286	1751.94019										-224.49367	529.89441	1655.10376							
182	1.810																												-80.21378	1137.58813	1438.51282				-177.11771	951.02698	1292.52783	-508.88361	1001.22705	1752.26660										-224.49092	529.97552	1655.10876							
183	1.820																												-81.96718	1135.85559	1437.58252				-176.34328	947.79004	1292.36890	-508.63712	1001.19788	1752.85583										-224.38824	529.32330	1657.74475							
